/* XPM */
static const char *const copy_xpm[] = {
/* columns rows colors chars-per-pixel */
"22 22 106 2",
"   c #7685DB",
".  c #748CDC",
"X  c #7893E0",
"o  c #7C97E2",
"O  c #6AAFEF",
"+  c #6CB5F3",
"@  c #66C5FC",
"#  c magenta",
"$  c #839BE2",
"%  c #879FE5",
"&  c #8D9FE3",
"*  c #88A3E9",
"=  c #8BA4E9",
"-  c #8EA5E9",
";  c #8EA6E9",
":  c #8CAFEB",
">  c #8EB1EC",
",  c #90A7E9",
"<  c #91A7E9",
"1  c #92A8E9",
"2  c #95A9E8",
"3  c #96ACEA",
"4  c #99ACE9",
"5  c #9DAFEA",
"6  c #9BB1ED",
"7  c #9FB7EE",
"8  c #9CB9F0",
"9  c #A0B2EC",
"0  c #A4B6ED",
"q  c #AABFEF",
"w  c #A4BCF0",
"e  c #98CBFE",
"r  c #9BCCFE",
"t  c #9DCEFE",
"y  c #ADC0EF",
"u  c #A0C6F8",
"i  c #A0CFFE",
"p  c #A3CDFC",
"a  c #A9C2F2",
"s  c #AEC7F4",
"d  c #A2D0FE",
"f  c #A4D1FE",
"g  c #A7D3FF",
"h  c #ACD5FF",
"j  c #B5CFF7",
"k  c #B1D8FF",
"l  c #B6DAFF",
"z  c #B9D2F8",
"x  c #BDD6FA",
"c  c #BADCFF",
"v  c #BBDDFF",
"b  c #BCDDFF",
"n  c #BFDFFF",
"m  c #C0D0F4",
"M  c #C1DAFB",
"N  c #C0DFFF",
"B  c #C5DFFC",
"V  c #C4E1FF",
"C  c #C5E2FF",
"Z  c #C7E2FE",
"A  c #C9E3FE",
"S  c #C9E4FF",
"D  c #CAE4FF",
"F  c #CBE5FF",
"G  c #CCE5FE",
"H  c #CDE6FF",
"J  c #CEE6FF",
"K  c #CFE7FE",
"L  c #CFE7FF",
"P  c #D0E7FF",
"I  c #D2E8FE",
"U  c #D2E8FF",
"Y  c #D3E8FE",
"T  c #D3E9FF",
"R  c #D4E9FF",
"E  c #D5EAFF",
"W  c #D7EBFF",
"Q  c #D8EBFF",
"!  c #D9ECFF",
"~  c #DCEDFF",
"^  c #DDEEFF",
"/  c #DEEEFF",
"(  c #E1F0FF",
")  c #E2F0FF",
"_  c #E3F1FF",
"`  c #E6F0FD",
"'  c #E6F2FF",
"]  c #E7F3FF",
"[  c #E8F3FF",
"{  c #EBF3FE",
"}  c #EBF5FF",
"|  c #ECF5FE",
" . c #ECF5FF",
".. c #EDF6FE",
"X. c #EEF6FE",
"o. c #EFF6FE",
"O. c #EFF7FE",
"+. c #EFF7FF",
"@. c #F0F7FF",
"#. c #F1F8FF",
"$. c #F5FAFF",
"%. c #F6FAFF",
"&. c #FAFCFF",
"*. c #FBFDFF",
"=. c gray100",
"-. c None",
/* pixels */
"-.-.-.-.-.-.-.-.-.-.-.-.-.-.-.-.-.-.-.-.-.-.",
"-.-.e r t d d f p u % -.-.-.-.-.-.-.-.-.-.-.",
"-.-.Z | | | @.| { ' $ o -.-.-.-.-.-.-.-.-.-.",
"-.-.Y =.=.=.=.&.%.| > + X -.-.-.-.-.-.-.-.-.",
"-.-.Y =.=.=.&.%.@.| : @ O . -.-.-.-.-.-.-.-.",
"-.-.Y =.=.&.%.@.| ' m y q & -.-.-.-.-.-.-.-.",
"-.-.Y =.&.%.@.} e t t d p f p u % -.-.-.-.-.",
"-.-.Y &.%.#.| ' Z | | | @.| { ' $ o -.-.-.-.",
"-.-.J %.$ $ $ $ P =.=.=.=.&.%.| > + X -.-.-.",
"-.-.S #.| ] ( ^ P =.=.=.&.%.#.| : @ O . -.-.",
"-.-.A } ] ( ^ ! Y =.=.&.%.#.} ' m y q & -.-.",
"-.-.B } $ $ $ $ P =.&.%.+.} ' ( ^ W Y 0 -.-.",
"-.-.M ( ^ ! Y K Y &.%.#.| ' ( ^ W Y J 9 -.-.",
"-.-.x ^ ! Y K S K %.$ $ $ $ $ $ $ $ Z 6 -.-.",
"-.-.z ! $ $ $ $ J #.| ] ( ^ ! Y J S V 4 -.-.",
"-.-.j W Y S Z n S } ] ( ^ ! Y J S Z b 2 -.-.",
"-.-.8 s a w 8 6 B { $ $ $ $ $ $ $ $ c 1 -.-.",
"-.-.-.-.-.-.-.-.M ( ^ ! Y J S Z b c l 1 -.-.",
"-.-.-.-.-.-.-.-.x ^ ! W K S Z V c l k ; -.-.",
"-.-.-.-.-.-.-.-.z ! $ $ $ $ $ $ $ $ h = -.-.",
"-.-.-.-.-.-.-.-.j W J S Z N b l k h f * -.-.",
"-.-.-.-.-.-.-.-.8 s a w 7 6 3 < ; = =   -.-."
};
