/* XPM */
static const char *const new_xpm[] = {
/* columns rows colors chars-per-pixel */
"22 22 144 2",
"   c #6A76D4",
".  c #727BD6",
"X  c #6A88DD",
"o  c #7281D8",
"O  c #7483D8",
"+  c #7686DA",
"@  c #7789DB",
"#  c #7B89DA",
"$  c #7A89DC",
"%  c #7C8ADC",
"&  c #7D8ADC",
"*  c #7E8ADC",
"=  c #7C8CDF",
"-  c #7D8CDE",
";  c #7E8DDF",
":  c #7F8EDD",
">  c #7290DF",
",  c #6C9FE7",
"<  c #769DE5",
"1  c #66B3F2",
"2  c #66CCFF",
"3  c magenta",
"4  c #808BDC",
"5  c #818BDC",
"6  c #818FDD",
"7  c #818FDE",
"8  c #828DDC",
"9  c #868FDD",
"0  c #8390DE",
"q  c #8490DD",
"w  c #8591DE",
"e  c #8691DD",
"r  c #8891DE",
"t  c #8B95DF",
"y  c #8996E0",
"u  c #8B9BE3",
"i  c #8E99E0",
"p  c #8FA1E6",
"a  c #93A6E7",
"s  c #93ACEC",
"d  c #97ABEA",
"f  c #9AB1EC",
"g  c #A1BAF0",
"h  c #A0BDF2",
"j  c #A3BEF2",
"k  c #A3C2F6",
"l  c #A6C1F3",
"z  c #A7C8F8",
"x  c #A9C5F4",
"c  c #ACC8F6",
"v  c #AFCCF7",
"b  c #A9CFFB",
"n  c #A7D2FD",
"m  c #A6D2FF",
"M  c #ABD3FD",
"N  c #AAD4FF",
"B  c #ACD5FD",
"V  c #ADD6FF",
"C  c #AED6FF",
"Z  c #BCCAF2",
"A  c #BECBF2",
"S  c #B1D0FA",
"D  c #B4D3FA",
"F  c #B7D6FC",
"G  c #B1D8FF",
"H  c #B2D8FF",
"J  c #B5DAFF",
"K  c #B6DAFF",
"L  c #B8DBFF",
"P  c #BAD9FC",
"I  c #B9DCFF",
"U  c #BADCFF",
"Y  c #BBDDFE",
"T  c #BCDDFE",
"R  c #BCDDFF",
"E  c #BDDDFF",
"W  c #BCDEFE",
"Q  c #BDDEFF",
"!  c #BFDFFF",
"~  c #C1CDF2",
"^  c #C5CFF3",
"/  c #C0DFFF",
"(  c #C1E0FF",
")  c #C3E1FF",
"_  c #C4E1FF",
"`  c #C5E2FF",
"'  c #C7E3FF",
"]  c #C8E3FF",
"[  c #C9E4FF",
"{  c #CAE4FF",
"}  c #CBE5FF",
"|  c #CCE5FF",
" . c #CDE6FF",
".. c #CEE6FF",
"X. c #CFE7FF",
"o. c #D0E7FF",
"O. c #D1E8FF",
"+. c #D2E8FF",
"@. c #D3E9FF",
"#. c #D4E9FF",
"$. c #D5EAFF",
"%. c #D6EAFF",
"&. c #D7EBFF",
"*. c #D8EBFF",
"=. c #D9ECFF",
"-. c #DAECFF",
";. c #DBEDFF",
":. c #DCEDFF",
">. c #DDEEFF",
",. c #DEEEFF",
"<. c #DFEFFF",
"1. c #E0EFFF",
"2. c #E1F0FF",
"3. c #E2F0FF",
"4. c #E3F1FF",
"5. c #E4F1FF",
"6. c #E5F2FF",
"7. c #E6F2FF",
"8. c #E7F3FF",
"9. c #E8F3FF",
"0. c #E9F4FF",
"q. c #EAF4FF",
"w. c #ECF5FF",
"e. c #EDF6FF",
"r. c #EFF5FE",
"t. c #EEF6FF",
"y. c #EFF7FF",
"u. c #F0F7FF",
"i. c #F3F7FE",
"p. c #F1F8FF",
"a. c #F2F8FF",
"s. c #F3F9FF",
"d. c #F4F9FF",
"f. c #F5FAFF",
"g. c #F7FAFE",
"h. c #F7FBFF",
"j. c #F8FBFF",
"k. c #F9FCFF",
"l. c #FAFCFF",
"z. c #FBFDFF",
"x. c #FCFDFF",
"c. c #FEFEFF",
"v. c gray100",
"b. c None",
/* pixels */
"b.b.b.b.n M B B B B M b z k h # b.b.b.b.b.b.",
"b.b.b.b.T j.j.j.j.j.j.j.g.i.r.  @ b.b.b.b.b.",
"b.b.b.b.W v.v.v.v.v.v.v.z.h.s.< , + b.b.b.b.",
"b.b.b.b.Y v.v.v.v.v.v.z.h.s.r.< 2 , o b.b.b.",
"b.b.b.b.W v.v.v.v.v.z.g.s.r.r.< 1 1 X o b.b.",
"b.b.b.b.W v.v.v.v.z.g.s.s.q.7.~ ~ A A 9 b.b.",
"b.b.b.b.W v.v.v.z.g.s.i.r.9.1.1.,.=.$.i b.b.",
"b.b.b.b.W v.v.v.g.g.r.r.9.7.1.,.=.$.O.t b.b.",
"b.b.b.b.W v.z.h.s.r.r.8.8.<.<.&.$.O.| r b.b.",
"b.b.b.b.Y z.z.g.s.r.q.7.<.<.=.&.O.| | w b.b.",
"b.b.b.b.P z.g.y.q.q.7.2.,.=.$.O.| } ' w b.b.",
"b.b.b.b.F s.y.r.q.7.2.,.=.$.O.X.} ' ) w b.b.",
"b.b.b.b.D s.r.q.7.2.,.=.=.O.O.} ' ) ! w b.b.",
"b.b.b.b.S r.q.7.2.,.,.*.O.O.} ' ) ! W 0 b.b.",
"b.b.b.b.v q.9.2.1.,.*.O.o.| } ) ! Y L : b.b.",
"b.b.b.b.c q.2.,.,.$.$.o.| ] _ W Y Y J 0 b.b.",
"b.b.b.b.x 2.<.,.=.$.| | ] _ W W Y J G 8 b.b.",
"b.b.b.b.l ,.,.*.$.O.| } _ ) W P J G B = b.b.",
"b.b.b.b.h ,.$.$.| | } _ ) W Y J G B B = b.b.",
"b.b.b.b.g =.$.O.| } _ ) W Y J G B N n = b.b.",
"b.b.b.b.s f d a p u y w 8 4 4 * * * $ . b.b.",
"b.b.b.b.b.b.b.b.b.b.b.b.b.b.b.b.b.b.b.b.b.b."
};
